<?xml version="1.0"?>
<svg xmlns="http://www.w3.org/2000/svg" xmlns:xlink="http://www.w3.org/1999/xlink" version="1.1" id="Capa_1" x="0px" y="0px" viewBox="0 0 512 512" style="enable-background:new 0 0 512 512;" xml:space="preserve" width="512px" height="512px" class=""><g><g>
	<g>
		<path d="M453.997,338.827h-7.73l-17.113-208.855c-1.346-16.422-15.307-29.287-31.783-29.287h-45.29    c-15.013-12.711-32.217-22.204-50.649-28.107V45.431C301.432,20.38,281.052,0,256,0C230.95,0,210.57,20.38,210.57,45.431v27.147    c-18.432,5.903-35.637,15.397-50.649,28.107h-45.29c-16.478,0-30.439,12.864-31.784,29.287l-4.817,58.788    c-0.338,4.128,2.734,7.749,6.863,8.087c0.208,0.017,0.415,0.025,0.621,0.025c3.865,0,7.146-2.968,7.467-6.888l4.817-58.788    c0.712-8.698,8.107-15.511,16.834-15.511h29.949c-21.265,24-34.224,54.195-36.857,86.483L96.576,338.827H80.784l9.992-121.949    c0.338-4.128-2.734-7.749-6.863-8.087c-4.12-0.334-7.749,2.735-8.087,6.863L65.734,338.827h-7.73    c-9.1,0-16.503,7.403-16.503,16.503v105.92c0,27.984,22.767,50.75,50.75,50.75h64.853h197.794h64.852    c27.983,0,50.75-22.766,50.75-50.75V355.33C470.5,346.23,463.097,338.827,453.997,338.827z M397.371,115.685    c8.727,0.001,16.121,6.814,16.834,15.512l17.013,207.63h-15.793l-11.146-136.659c-2.634-32.288-15.594-62.483-36.858-86.483    H397.371z M225.57,45.431C225.57,28.651,239.221,15,256,15c16.78,0,30.432,13.651,30.432,30.431v23.193    c-9.927-2.067-20.115-3.133-30.432-3.133c-10.316,0-20.505,1.066-30.431,3.133V45.431z M92.25,497    c-19.712,0-35.75-16.038-35.75-35.75V355.33c0-0.829,0.674-1.503,1.503-1.503h14.601c0.016,0,0.032,0.002,0.048,0.002    c0.014,0,0.027-0.002,0.041-0.002h22.66l-6.832,83.77c-1.558,19.102,4.998,38.139,17.987,52.23    c2.398,2.601,4.984,4.995,7.724,7.173H92.25z M354.898,497H157.104c-15.207,0-29.258-6.158-39.565-17.34    s-15.302-25.687-14.066-40.844l19.202-235.428C128.294,134.474,186.857,80.492,256,80.492s127.707,53.982,133.327,122.896    l19.201,235.428c1.237,15.157-3.758,29.662-14.064,40.843C384.158,490.842,370.106,497,354.898,497z M455.5,461.25    c0,19.712-16.037,35.75-35.75,35.75H397.77c2.74-2.179,5.326-4.572,7.724-7.174c12.988-14.092,19.544-33.128,17.986-52.229    l-6.832-83.77h22.66c0.014,0,0.027,0.002,0.041,0.002c0.016,0,0.032-0.002,0.048-0.002h14.601c0.829,0,1.503,0.674,1.503,1.503    V461.25z" data-original="#000000" class="active-path" data-old_color="#000000" fill="#4ACAA8"/>
	</g>
</g><g>
	<g>
		<path d="M276.497,235.682c-3.588-2.063-8.175-0.827-10.24,2.764c-2.107,3.665-6.037,5.941-10.257,5.941    c-4.219,0-8.149-2.277-10.257-5.942c-2.064-3.591-6.648-4.828-10.24-2.764c-3.591,2.064-4.828,6.649-2.764,10.24    c4.775,8.306,13.688,13.465,23.261,13.465s18.485-5.159,23.261-13.464C281.326,242.331,280.089,237.746,276.497,235.682z" data-original="#000000" class="active-path" data-old_color="#000000" fill="#4ACAA8"/>
	</g>
</g><g>
	<g>
		<path d="M319.69,203.755c-4.143,0-7.5,3.358-7.5,7.5v11.355c0,4.142,3.358,7.5,7.5,7.5c4.143,0,7.5-3.358,7.5-7.5v-11.355    C327.19,207.113,323.833,203.755,319.69,203.755z" data-original="#000000" class="active-path" data-old_color="#000000" fill="#4ACAA8"/>
	</g>
</g><g>
	<g>
		<path d="M192.312,203.755c-4.142,0-7.5,3.358-7.5,7.5v11.355c0,4.142,3.357,7.5,7.5,7.5c4.142,0,7.5-3.358,7.5-7.5v-11.355    C199.812,207.113,196.453,203.755,192.312,203.755z" data-original="#000000" class="active-path" data-old_color="#000000" fill="#4ACAA8"/>
	</g>
</g><g>
	<g>
		<path d="M325.367,236.576h-11.355c-4.143,0-7.5,3.358-7.5,7.5c0,4.142,3.357,7.5,7.5,7.5h11.355c4.143,0,7.5-3.358,7.5-7.5    C332.867,239.934,329.51,236.576,325.367,236.576z" data-original="#000000" class="active-path" data-old_color="#000000" fill="#4ACAA8"/>
	</g>
</g><g>
	<g>
		<path d="M197.988,236.576h-11.355c-4.142,0-7.5,3.358-7.5,7.5c0,4.142,3.358,7.5,7.5,7.5h11.355c4.142,0,7.5-3.358,7.5-7.5    C205.488,239.934,202.13,236.576,197.988,236.576z" data-original="#000000" class="active-path" data-old_color="#000000" fill="#4ACAA8"/>
	</g>
</g><g>
	<g>
		<path d="M369.443,208.009l-0.242-2.978c-2.326-28.51-15.19-54.89-36.224-74.278S284.605,100.688,256,100.688    c-28.606,0-55.944,10.677-76.977,30.065c-21.034,19.388-33.898,45.767-36.224,74.278c-0.336,4.126,2.738,7.746,6.867,8.083    c4.135,0.337,7.748-2.738,8.085-6.865c2.019-24.746,13.184-47.641,31.439-64.468c18.255-16.828,41.983-26.095,66.811-26.095    s48.555,9.267,66.812,26.095c18.255,16.828,29.421,39.723,31.438,64.467l0.242,2.977c0.319,3.921,3.601,6.892,7.468,6.892    c0.203,0,0.409-0.008,0.616-0.025C366.704,215.756,369.779,212.137,369.443,208.009z" data-original="#000000" class="active-path" data-old_color="#000000" fill="#4ACAA8"/>
	</g>
</g><g>
	<g>
		<path d="M386.562,358.777l-4.486-49.882c-0.998-11.09-10.147-19.453-21.281-19.453H151.208c-11.135,0-20.284,8.363-21.282,19.454    l-4.486,49.881c-0.903,10.045,5.339,19.243,14.762,22.256l-3.814,55.947c-0.466,6.84,1.951,13.637,6.631,18.647    s11.297,7.883,18.153,7.883h138.841v0.001c4.143,0,7.5-3.358,7.5-7.5c0-4.142-3.357-7.5-7.5-7.5h-138.84    c-2.756,0-5.311-1.109-7.192-3.123c-1.881-2.014-2.814-4.638-2.627-7.388l3.662-53.724l78.955,16.642    c7.23,1.524,14.643,2.296,22.031,2.296s14.801-0.772,22.031-2.296l78.955-16.642l3.66,53.724c0.188,2.749-0.745,5.373-2.627,7.387    c-1.881,2.014-4.436,3.124-7.191,3.124h-22.817c-4.143,0-7.5,3.358-7.5,7.5c0,4.142,3.357,7.5,7.5,7.5h22.817    c6.856,0,13.473-2.874,18.153-7.884c4.681-5.01,7.097-11.807,6.63-18.647l-3.813-55.947    C381.223,378.019,387.465,368.822,386.562,358.777z M366.593,366.922l-91.655,19.319c-12.43,2.62-25.445,2.62-37.875,0    l-91.656-19.319c-3.155-0.666-5.317-3.589-5.028-6.801l4.486-49.881c0.297-3.305,3.024-5.797,6.342-5.797h209.587    c3.317,0,6.044,2.493,6.342,5.797l4.486,49.881C371.91,363.333,369.749,366.257,366.593,366.922z" data-original="#000000" class="active-path" data-old_color="#000000" fill="#4ACAA8"/>
	</g>
</g></g> </svg>
